# xmcd
#
# Track frame offsets:
# 150
# 12615
# 23370
# 37982
# 58489
# 70357
# 84075
# 102597
# 113895
# 126937
#
# Disc length: 1988 seconds
#
# Revision: 1
# Processed by: cddbd v1.5PL3 Copyright (c) Steve Scherf et al.
# Submitted via: inCDius 2.0b9
#
DISCID=8307c20a
DTITLE=Buck Divot - Keep Yer Head Up And Swing Really Hard
DYEAR=1900
DGENRE=
TTITLE0=Keep Yer Head Up And Swing Really Hard
TTITLE1=King Of The course
TTITLE2=Mammas Don't Let Your Babies Grow Up To Be Golf Pros
TTITLE3=Golf Geezers In The Sky
TTITLE4=I Fall To Pieces
TTITLE5=Yer Driving, Driving Me To Drink
TTITLE6=Green Green Greens Of Home
TTITLE7=Eighteen Holes
TTITLE8=Home On The Course
TTITLE9=Course Of The Rising Sun
EXTD=
EXTT0=
EXTT1=
EXTT2=
EXTT3=
EXTT4=
EXTT5=
EXTT6=
EXTT7=
EXTT8=
EXTT9=
PLAYORDER=
